<svg xmlns="http://www.w3.org/2000/svg" viewBox="0 0 56 39.15">
  <defs>
    <style>
      .cls-1 {
        fill: #ee305f;
      }
    </style>
  </defs>
  <g id="Layer_2" data-name="Layer 2">
    <g id="Layer_1-2" data-name="Layer 1">
      <g>
        <path class="cls-1" d="M18.2,17.92h-3a4.16,4.16,0,0,0-4.16,4.16v.66H22.36v-.66A4.16,4.16,0,0,0,18.2,17.92Z"/>
        <path class="cls-1" d="M16.72,14.64a2.46,2.46,0,1,0-2.46-2.46A2.46,2.46,0,0,0,16.72,14.64Z"/>
        <path class="cls-1" d="M0,0V39.15H56V0ZM25.59,32.37H7.74V29.09H25.59ZM25.64,26H7.79V22.08A7.46,7.46,0,0,1,12,15.39a5.74,5.74,0,1,1,9.51,0,7.46,7.46,0,0,1,4.17,6.69ZM48,27.89H32V24.61H48Zm0-6.67H32V17.93H48Zm0-6.68H32V11.26H48Z"/>
      </g>
    </g>
  </g>
</svg>
